# xmcd
#
# Track frame offsets:
#	187
#	17750
#	36055
#	50975
#	72497
#	92762
#	94447
#	109575
#	121910
#	143202
#	158270
#	159722
#	174872
#	198420
#
# Disc length: 2700 seconds
#
# Revision: 0
# Processed by: cddbd v1.4PL0 Copyright (c) Steve Scherf et al.
# Submitted via: EasyCDDAExtractor 5.0.5.1
#
DISCID=ba0a8a0e
DTITLE=Windows - Blue September
DYEAR=1990
DGENRE=Blues
TTITLE0=Under My Thumb
TTITLE1=Counting Up the Years
TTITLE2=Edge of The World
TTITLE3=Blue September
TTITLE4=Stay In Touch
TTITLE5=Interlude
TTITLE6=Love Is In My Life
TTITLE7=Sand Box
TTITLE8=Someon'es Growing Up Here
TTITLE9=In the Lounge
TTITLE10=Interlude
TTITLE11=Ginger Snaps
TTITLE12=Elbow Room
TTITLE13=Unknown
EXTD=
EXTT0=
EXTT1=
EXTT2=
EXTT3=
EXTT4=
EXTT5=
EXTT6=
EXTT7=
EXTT8=
EXTT9=
EXTT10=
EXTT11=
EXTT12=
EXTT13=
PLAYORDER=
